# This file uses centimeters as units for non-parametric coordinates.

mtllib Knife_01.mtl
g default
v 10.242440 -144.266083 7.001677
v -6.884384 -108.685394 7.001677
v -10.242440 -83.669647 7.001677
v 2.952022 -131.929901 7.001677
v -8.864200 0.164886 7.001677
v 10.242440 0.164886 6.053921
v 10.242440 0.164886 7.949435
v 10.242440 143.097992 8.838219
v 8.406266 143.097992 10.029523
v 8.406266 1.481293 10.029523
v 10.242440 1.481293 8.838219
v -8.406266 143.097992 10.029523
v -10.242440 143.097992 8.838219
v -10.242440 1.481293 8.838219
v -8.406266 1.481293 10.029523
v 8.406266 143.097992 3.973832
v 10.242440 143.097992 5.165136
v 10.242440 1.481293 5.165136
v 8.406266 1.481293 3.973832
v -10.242440 143.097992 5.165136
v -8.406266 143.097992 3.973832
v -8.406266 1.481293 3.973832
v -10.242440 1.481293 5.165136
v 8.406266 144.266083 8.838219
v -8.406266 144.266083 8.838219
v -8.406266 144.266083 5.165136
v 8.406266 144.266083 5.165136
v -10.242440 -2.262909 7.001677
v 4.169479 12.671906 3.636954
v 3.625610 13.739288 3.636954
v 2.778513 14.586395 3.636954
v 1.711109 15.130280 3.636954
v 0.527883 15.317657 3.636954
v -0.655343 15.130280 3.636954
v -1.722746 14.586395 3.636954
v -2.569842 13.739288 3.636954
v -3.113711 12.671906 3.636954
v -3.301116 11.488678 3.636954
v -3.113711 10.305450 3.636954
v -2.569842 9.238068 3.636954
v -1.722746 8.390961 3.636954
v -0.655342 7.847076 3.636954
v 0.527883 7.659698 3.636954
v 1.711108 7.847076 3.636954
v 2.778512 8.390961 3.636954
v 3.625608 9.238068 3.636954
v 4.169477 10.305450 3.636954
v 4.356881 11.488678 3.636954
v 4.169479 12.671906 10.189520
v 3.625610 13.739288 10.189520
v 2.778513 14.586395 10.189520
v 1.711109 15.130280 10.189520
v 0.527883 15.317657 10.189520
v -0.655343 15.130280 10.189520
v -1.722746 14.586395 10.189520
v -2.569842 13.739288 10.189520
v -3.113711 12.671906 10.189520
v -3.301116 11.488678 10.189520
v -3.113711 10.305450 10.189520
v -2.569842 9.238068 10.189520
v -1.722746 8.390961 10.189520
v -0.655342 7.847076 10.189520
v 0.527883 7.659698 10.189520
v 1.711108 7.847076 10.189520
v 2.778512 8.390961 10.189520
v 3.625608 9.238068 10.189520
v 4.169477 10.305450 10.189520
v 4.356881 11.488678 10.189520
v 0.527883 11.488678 3.636954
v 0.527883 11.488678 10.189520
v 4.169479 40.375214 3.636954
v 3.625610 41.442596 3.636954
v 2.778513 42.289703 3.636954
v 1.711109 42.833588 3.636954
v 0.527883 43.020966 3.636954
v -0.655343 42.833588 3.636954
v -1.722746 42.289703 3.636954
v -2.569842 41.442596 3.636954
v -3.113711 40.375214 3.636954
v -3.301116 39.191986 3.636954
v -3.113711 38.008759 3.636954
v -2.569842 36.941376 3.636954
v -1.722746 36.094269 3.636954
v -0.655342 35.550385 3.636954
v 0.527883 35.363007 3.636954
v 1.711108 35.550385 3.636954
v 2.778512 36.094269 3.636954
v 3.625608 36.941376 3.636954
v 4.169477 38.008759 3.636954
v 4.356881 39.191986 3.636954
v 4.169479 40.375214 10.189520
v 3.625610 41.442596 10.189520
v 2.778513 42.289703 10.189520
v 1.711109 42.833588 10.189520
v 0.527883 43.020966 10.189520
v -0.655343 42.833588 10.189520
v -1.722746 42.289703 10.189520
v -2.569842 41.442596 10.189520
v -3.113711 40.375214 10.189520
v -3.301116 39.191986 10.189520
v -3.113711 38.008759 10.189520
v -2.569842 36.941376 10.189520
v -1.722746 36.094269 10.189520
v -0.655342 35.550385 10.189520
v 0.527883 35.363007 10.189520
v 1.711108 35.550385 10.189520
v 2.778512 36.094269 10.189520
v 3.625608 36.941376 10.189520
v 4.169477 38.008759 10.189520
v 4.356881 39.191986 10.189520
v 0.527883 39.191986 3.636954
v 0.527883 39.191986 10.189520
vt 0.559556 0.125000
vt 0.601336 0.125000
vt 0.625000 0.125000
vt 0.517776 0.125000
vt 0.587408 0.170640
vt 0.588817 0.073598
vt 0.375000 0.562494
vt 0.602591 0.500000
vt 0.625000 0.562494
vt 0.397409 0.750000
vt 0.375000 0.687506
vt 0.395066 0.123378
vt 0.397409 0.000000
vt 0.397409 0.500000
vt 0.602590 0.250000
vt 0.875000 0.187506
vt 0.625000 0.062494
vt 0.875000 0.062494
vt 0.125000 0.062494
vt 0.602591 0.750000
vt 0.602592 1.000000
vt 0.397410 1.000000
vt 0.875000 0.250000
vt 0.625000 0.250000
vt 0.125000 0.250000
vt 0.125000 0.187506
vt 0.375000 0.187506
vt 0.625000 0.687506
vt 0.625000 1.000000
vt 0.125000 0.000000
vt 0.375000 0.000000
vt 0.625000 0.187508
vt 0.397409 0.250000
vt 0.602591 0.000000
vt 0.375000 0.062494
vt 0.602591 0.549181
vt 0.397409 0.549181
vt 0.397409 0.700819
vt 0.602591 0.700819
vt 0.398620 0.123425
vt 0.375000 0.312500
vt 0.387500 0.312500
vt 0.387500 0.688440
vt 0.375000 0.688440
vt 0.400000 0.312500
vt 0.400000 0.688440
vt 0.412500 0.312500
vt 0.412500 0.688440
vt 0.425000 0.312500
vt 0.425000 0.688440
vt 0.437500 0.312500
vt 0.437500 0.688440
vt 0.450000 0.312500
vt 0.450000 0.688440
vt 0.462500 0.312500
vt 0.462500 0.688440
vt 0.475000 0.312500
vt 0.475000 0.688440
vt 0.487500 0.312500
vt 0.487500 0.688440
vt 0.500000 0.312500
vt 0.500000 0.688440
vt 0.512500 0.312500
vt 0.512500 0.688440
vt 0.525000 0.312500
vt 0.525000 0.688440
vt 0.537500 0.312500
vt 0.537500 0.688440
vt 0.550000 0.312500
vt 0.550000 0.688440
vt 0.562500 0.312500
vt 0.562500 0.688440
vt 0.575000 0.312500
vt 0.575000 0.688440
vt 0.587500 0.312500
vt 0.587500 0.688440
vt 0.600000 0.312500
vt 0.600000 0.688440
vt 0.612500 0.312500
vt 0.612500 0.688440
vt 0.625000 0.312500
vt 0.625000 0.688440
vt 0.626409 0.064408
vt 0.648603 0.107966
vt 0.500000 0.150000
vt 0.591842 0.029841
vt 0.548284 0.007647
vt 0.500000 -0.000000
vt 0.451716 0.007647
vt 0.408159 0.029841
vt 0.373591 0.064409
vt 0.351397 0.107966
vt 0.343750 0.156250
vt 0.351397 0.204534
vt 0.373591 0.248091
vt 0.408159 0.282659
vt 0.451716 0.304853
vt 0.500000 0.312500
vt 0.548284 0.304853
vt 0.591841 0.282659
vt 0.626409 0.248091
vt 0.648603 0.204534
vt 0.656250 0.156250
vt 0.648603 0.892034
vt 0.626409 0.935591
vt 0.500000 0.837500
vt 0.591841 0.970159
vt 0.548284 0.992353
vt 0.500000 1.000000
vt 0.451716 0.992353
vt 0.408159 0.970159
vt 0.373591 0.935591
vt 0.351397 0.892034
vt 0.343750 0.843750
vt 0.351397 0.795466
vt 0.373591 0.751909
vt 0.408159 0.717341
vt 0.451716 0.695147
vt 0.500000 0.687500
vt 0.548284 0.695147
vt 0.591842 0.717341
vt 0.626409 0.751908
vt 0.648603 0.795466
vt 0.656250 0.843750
vt 0.375000 0.312500
vt 0.387500 0.312500
vt 0.387500 0.688440
vt 0.375000 0.688440
vt 0.400000 0.312500
vt 0.400000 0.688440
vt 0.412500 0.312500
vt 0.412500 0.688440
vt 0.425000 0.312500
vt 0.425000 0.688440
vt 0.437500 0.312500
vt 0.437500 0.688440
vt 0.450000 0.312500
vt 0.450000 0.688440
vt 0.462500 0.312500
vt 0.462500 0.688440
vt 0.475000 0.312500
vt 0.475000 0.688440
vt 0.487500 0.312500
vt 0.487500 0.688440
vt 0.500000 0.312500
vt 0.500000 0.688440
vt 0.512500 0.312500
vt 0.512500 0.688440
vt 0.525000 0.312500
vt 0.525000 0.688440
vt 0.537500 0.312500
vt 0.537500 0.688440
vt 0.550000 0.312500
vt 0.550000 0.688440
vt 0.562500 0.312500
vt 0.562500 0.688440
vt 0.575000 0.312500
vt 0.575000 0.688440
vt 0.587500 0.312500
vt 0.587500 0.688440
vt 0.600000 0.312500
vt 0.600000 0.688440
vt 0.612500 0.312500
vt 0.612500 0.688440
vt 0.625000 0.312500
vt 0.625000 0.688440
vt 0.626409 0.064408
vt 0.648603 0.107966
vt 0.500000 0.150000
vt 0.591842 0.029841
vt 0.548284 0.007647
vt 0.500000 -0.000000
vt 0.451716 0.007647
vt 0.408159 0.029841
vt 0.373591 0.064409
vt 0.351397 0.107966
vt 0.343750 0.156250
vt 0.351397 0.204534
vt 0.373591 0.248091
vt 0.408159 0.282659
vt 0.451716 0.304853
vt 0.500000 0.312500
vt 0.548284 0.304853
vt 0.591841 0.282659
vt 0.626409 0.248091
vt 0.648603 0.204534
vt 0.656250 0.156250
vt 0.648603 0.892034
vt 0.626409 0.935591
vt 0.500000 0.837500
vt 0.591841 0.970159
vt 0.548284 0.992353
vt 0.500000 1.000000
vt 0.451716 0.992353
vt 0.408159 0.970159
vt 0.373591 0.935591
vt 0.351397 0.892034
vt 0.343750 0.843750
vt 0.351397 0.795466
vt 0.373591 0.751909
vt 0.408159 0.717341
vt 0.451716 0.695147
vt 0.500000 0.687500
vt 0.548284 0.695147
vt 0.591842 0.717341
vt 0.626409 0.751908
vt 0.648603 0.795466
vt 0.656250 0.843750
vn -1.000000 0.000000 0.000000
vn -1.000000 0.000000 0.000000
vn -1.000000 0.000000 0.000000
vn -1.000000 0.000000 0.000000
vn -0.012020 -0.890121 -0.455566
vn -0.012020 -0.890121 -0.455566
vn -0.012020 -0.890121 -0.455566
vn -0.012020 -0.890121 -0.455566
vn 0.000000 0.000000 -1.000000
vn 0.000000 0.000000 -1.000000
vn 0.000000 0.000000 -1.000000
vn 0.000000 0.000000 -1.000000
vn 1.000000 -0.000001 0.000000
vn 1.000000 -0.000001 0.000000
vn 1.000000 -0.000001 0.000000
vn 1.000000 -0.000001 0.000000
vn 1.000000 0.000000 0.000000
vn 1.000000 0.000000 0.000000
vn 1.000000 0.000000 0.000000
vn 1.000000 0.000000 0.000000
vn 0.000000 0.000000 1.000000
vn 0.000000 0.000000 1.000000
vn 0.000000 0.000000 1.000000
vn 0.000000 0.000000 1.000000
vn 1.000000 0.000000 0.000000
vn 1.000000 0.000000 0.000000
vn 1.000000 0.000000 0.000000
vn -0.011879 -0.006519 -0.999908
vn -0.042844 -0.000691 -0.999082
vn -0.011103 -0.006561 -0.999917
vn -0.032371 -0.003389 0.999470
vn -0.042860 -0.000623 0.999081
vn -0.046267 0.000428 0.998929
vn -0.413561 0.650095 0.637451
vn -0.413561 0.650095 0.637451
vn -0.413561 0.650095 0.637451
vn -0.012020 -0.890121 0.455566
vn -0.012020 -0.890121 0.455566
vn -0.012020 -0.890121 0.455566
vn -0.012020 -0.890121 0.455566
vn -0.690699 -0.723143 0.000000
vn -0.690699 -0.723143 0.000000
vn -0.690699 -0.723143 0.000000
vn 0.544279 0.000000 0.838905
vn 0.544279 0.000000 0.838905
vn 0.544279 0.000000 0.838905
vn 0.544279 0.000000 0.838905
vn -0.544279 0.000000 0.838905
vn -0.544279 0.000000 0.838905
vn -0.544279 0.000000 0.838905
vn -0.544279 0.000000 0.838905
vn 0.544279 0.000000 -0.838904
vn 0.544279 0.000000 -0.838904
vn 0.544279 0.000000 -0.838904
vn 0.544279 0.000000 -0.838904
vn -0.544279 0.000000 -0.838904
vn -0.544279 0.000000 -0.838904
vn -0.544279 0.000000 -0.838904
vn -0.544279 0.000000 -0.838904
vn 0.473581 -0.492824 0.729963
vn 0.473581 -0.492824 0.729963
vn 0.473581 -0.492824 0.729963
vn -0.271179 -0.867035 0.417986
vn -0.271179 -0.867035 0.417986
vn -0.271179 -0.867035 0.417986
vn 0.473581 -0.492824 -0.729963
vn 0.473581 -0.492824 -0.729963
vn 0.473581 -0.492824 -0.729963
vn -0.271178 -0.867035 -0.417986
vn -0.271178 -0.867035 -0.417986
vn -0.271178 -0.867035 -0.417986
vn 0.000000 0.714045 0.700100
vn 0.000000 0.714045 0.700100
vn 0.000000 0.714045 0.700100
vn 0.000000 0.714045 0.700100
vn 0.413561 0.650095 0.637451
vn 0.413561 0.650095 0.637451
vn 0.413561 0.650095 0.637451
vn 0.413561 0.650095 -0.637451
vn 0.413561 0.650095 -0.637451
vn 0.413561 0.650095 -0.637451
vn 0.000000 0.714045 -0.700100
vn 0.000000 0.714045 -0.700100
vn 0.000000 0.714045 -0.700100
vn 0.000000 0.714045 -0.700100
vn -0.413561 0.650095 -0.637451
vn -0.413561 0.650095 -0.637451
vn -0.413561 0.650095 -0.637451
vn -0.536750 0.843741 0.000000
vn -0.536750 0.843741 0.000000
vn -0.536750 0.843741 0.000000
vn -0.536750 0.843741 0.000000
vn 0.000000 1.000000 0.000000
vn 0.000000 1.000000 0.000000
vn 0.000000 1.000000 0.000000
vn 0.000000 1.000000 0.000000
vn 0.536750 0.843741 0.000000
vn 0.536750 0.843741 0.000000
vn 0.536750 0.843741 0.000000
vn 0.536750 0.843741 0.000000
vn -0.049522 0.028113 0.998377
vn -0.049521 0.028113 -0.998377
vn -0.049521 0.028113 -0.998377
vn -0.049521 0.028113 -0.998377
vn -0.032370 -0.003389 -0.999470
vn -0.046217 0.000000 -0.998932
vn -0.015845 -0.006213 -0.999855
vn -0.015845 -0.006213 0.999855
vn -0.011879 -0.006519 0.999908
vn -0.011103 -0.006561 0.999917
vn 0.951056 0.309019 0.000000
vn 0.809015 0.587787 0.000000
vn 0.809015 0.587787 0.000000
vn 0.951056 0.309019 0.000000
vn 0.587792 0.809012 0.000000
vn 0.587792 0.809012 0.000000
vn 0.309013 0.951058 0.000000
vn 0.309013 0.951058 0.000000
vn -0.000000 1.000000 0.000000
vn -0.000000 1.000000 0.000000
vn -0.309013 0.951058 0.000000
vn -0.309013 0.951058 0.000000
vn -0.587792 0.809012 0.000000
vn -0.587792 0.809012 0.000000
vn -0.809016 0.587787 0.000000
vn -0.809016 0.587787 0.000000
vn -0.951056 0.309019 0.000000
vn -0.951056 0.309019 0.000000
vn -1.000000 0.000000 0.000000
vn -1.000000 0.000000 0.000000
vn -0.951056 -0.309019 0.000000
vn -0.951056 -0.309019 0.000000
vn -0.809016 -0.587787 0.000000
vn -0.809016 -0.587787 0.000000
vn -0.587792 -0.809012 0.000000
vn -0.587792 -0.809012 0.000000
vn -0.309013 -0.951058 0.000000
vn -0.309013 -0.951058 0.000000
vn -0.000000 -1.000000 0.000000
vn -0.000000 -1.000000 0.000000
vn 0.309013 -0.951058 0.000000
vn 0.309013 -0.951058 0.000000
vn 0.587792 -0.809012 0.000000
vn 0.587792 -0.809012 0.000000
vn 0.809016 -0.587787 0.000000
vn 0.809016 -0.587787 0.000000
vn 0.951056 -0.309019 0.000000
vn 0.951056 -0.309019 0.000000
vn 1.000000 -0.000001 0.000000
vn 1.000000 -0.000001 0.000000
vn 0.000000 0.000000 -1.000000
vn 0.000000 0.000000 -1.000000
vn -0.000000 0.000000 -1.000000
vn -0.000000 0.000000 -1.000000
vn -0.000000 0.000000 -1.000000
vn 0.000000 0.000000 -1.000000
vn -0.000000 0.000000 -1.000000
vn 0.000000 0.000000 -1.000000
vn 0.000000 0.000000 -1.000000
vn 0.000000 0.000000 -1.000000
vn 0.000000 0.000000 -1.000000
vn 0.000000 0.000000 -1.000000
vn 0.000000 0.000000 -1.000000
vn 0.000000 0.000000 -1.000000
vn 0.000000 0.000000 -1.000000
vn 0.000000 0.000000 -1.000000
vn -0.000000 0.000000 -1.000000
vn -0.000000 0.000000 -1.000000
vn 0.000000 0.000000 -1.000000
vn 0.000000 0.000000 -1.000000
vn 0.000000 0.000000 -1.000000
vn -0.000000 0.000000 1.000000
vn -0.000000 0.000000 1.000000
vn -0.000000 0.000000 1.000000
vn 0.000000 0.000000 1.000000
vn 0.000000 0.000000 1.000000
vn 0.000000 0.000000 1.000000
vn 0.000000 0.000000 1.000000
vn 0.000000 0.000000 1.000000
vn 0.000000 0.000000 1.000000
vn 0.000000 0.000000 1.000000
vn 0.000000 0.000000 1.000000
vn 0.000000 0.000000 1.000000
vn 0.000000 0.000000 1.000000
vn 0.000000 0.000000 1.000000
vn 0.000000 0.000000 1.000000
vn 0.000000 0.000000 1.000000
vn 0.000000 0.000000 1.000000
vn 0.000000 0.000000 1.000000
vn -0.000000 0.000000 1.000000
vn -0.000000 0.000000 1.000000
vn 0.000000 0.000000 1.000000
vn 0.951056 0.309019 0.000000
vn 0.809015 0.587787 0.000000
vn 0.809015 0.587787 0.000000
vn 0.951056 0.309019 0.000000
vn 0.587792 0.809012 0.000000
vn 0.587792 0.809012 0.000000
vn 0.309013 0.951058 0.000000
vn 0.309013 0.951058 0.000000
vn -0.000000 1.000000 0.000000
vn -0.000000 1.000000 0.000000
vn -0.309013 0.951058 0.000000
vn -0.309013 0.951058 0.000000
vn -0.587792 0.809012 0.000000
vn -0.587792 0.809012 0.000000
vn -0.809016 0.587787 0.000000
vn -0.809016 0.587787 0.000000
vn -0.951056 0.309019 0.000000
vn -0.951056 0.309019 0.000000
vn -1.000000 0.000000 0.000000
vn -1.000000 0.000000 0.000000
vn -0.951056 -0.309019 0.000000
vn -0.951056 -0.309019 0.000000
vn -0.809016 -0.587787 0.000000
vn -0.809016 -0.587787 0.000000
vn -0.587792 -0.809012 0.000000
vn -0.587792 -0.809012 0.000000
vn -0.309013 -0.951058 0.000000
vn -0.309013 -0.951058 0.000000
vn -0.000000 -1.000000 0.000000
vn -0.000000 -1.000000 0.000000
vn 0.309013 -0.951058 0.000000
vn 0.309013 -0.951058 0.000000
vn 0.587792 -0.809012 0.000000
vn 0.587792 -0.809012 0.000000
vn 0.809016 -0.587787 0.000000
vn 0.809016 -0.587787 0.000000
vn 0.951056 -0.309019 0.000000
vn 0.951056 -0.309019 0.000000
vn 1.000000 -0.000001 0.000000
vn 1.000000 -0.000001 0.000000
vn 0.000000 0.000000 -1.000000
vn 0.000000 0.000000 -1.000000
vn 0.000000 0.000000 -1.000000
vn -0.000000 0.000000 -1.000000
vn 0.000000 0.000000 -1.000000
vn 0.000000 0.000000 -1.000000
vn 0.000000 0.000000 -1.000000
vn 0.000000 0.000000 -1.000000
vn 0.000000 0.000000 -1.000000
vn 0.000000 0.000000 -1.000000
vn 0.000000 0.000000 -1.000000
vn 0.000000 0.000000 -1.000000
vn 0.000000 0.000000 -1.000000
vn 0.000000 0.000000 -1.000000
vn 0.000000 0.000000 -1.000000
vn -0.000000 0.000000 -1.000000
vn -0.000000 0.000000 -1.000000
vn -0.000000 0.000000 -1.000000
vn 0.000000 0.000000 -1.000000
vn 0.000000 0.000000 -1.000000
vn 0.000000 0.000000 -1.000000
vn -0.000000 0.000000 1.000000
vn -0.000000 0.000000 1.000000
vn -0.000000 0.000000 1.000000
vn 0.000000 0.000000 1.000000
vn 0.000000 0.000000 1.000000
vn 0.000000 0.000000 1.000000
vn 0.000000 0.000000 1.000000
vn 0.000000 0.000000 1.000000
vn 0.000000 0.000000 1.000000
vn 0.000000 0.000000 1.000000
vn 0.000000 0.000000 1.000000
vn 0.000000 0.000000 1.000000
vn 0.000000 0.000000 1.000000
vn 0.000000 0.000000 1.000000
vn 0.000000 0.000000 1.000000
vn 0.000000 0.000000 1.000000
vn 0.000000 0.000000 1.000000
vn 0.000000 0.000000 1.000000
vn -0.000000 0.000000 1.000000
vn -0.000000 0.000000 1.000000
vn 0.000000 0.000000 1.000000
s off
g pCube2
usemtl blinn5SG
f 20/19/1 23/35/2 14/27/3 13/26/4
f 5/12/5 22/13/6 19/34/7 6/6/8
f 16/20/9 19/21/10 22/22/11 21/10/12
f 6/6/13 18/17/14 11/32/15 7/5/16
f 8/16/17 11/32/18 18/17/19 17/18/20
f 12/14/21 15/33/22 10/15/23 9/8/24
usemtl blinn3SG
f 6/6/25 7/5/26 1/3/27
s 1
f 4/2/28 6/6/29 1/3/30
s 2
f 3/4/31 7/5/32 28/40/33
s off
usemtl blinn5SG
f 13/7/34 12/14/35 25/37/36
f 15/33/37 5/12/38 7/5/39 10/15/40
f 23/35/41 5/12/42 14/27/43
f 8/16/44 9/23/45 10/24/46 11/32/47
f 12/25/48 13/26/49 14/27/50 15/33/51
f 16/20/52 17/28/53 18/29/54 19/21/55
f 20/19/56 21/30/57 22/31/58 23/35/59
f 10/15/60 7/5/61 11/32/62
f 14/27/63 5/12/64 15/33/65
f 18/17/66 6/6/67 19/34/68
f 22/31/69 5/12/70 23/35/71
f 24/36/72 25/37/73 12/14/74 9/8/75
f 8/9/76 24/36/77 9/8/78
f 16/20/79 27/39/80 17/28/81
f 21/10/82 26/38/83 27/39/84 16/20/85
f 20/11/86 26/38/87 21/10/88
f 13/7/89 25/37/90 26/38/91 20/11/92
f 27/39/93 26/38/94 25/37/95 24/36/96
f 17/28/97 27/39/98 24/36/99 8/9/100
s 2
usemtl blinn3SG
f 28/40/33 7/5/32 5/12/101
s off
f 6/6/102 28/40/103 5/12/104
s 1
f 6/6/29 3/4/105 28/40/106
f 2/1/107 3/4/105 6/6/29
f 2/1/107 6/6/29 4/2/28
s 2
f 2/1/108 4/2/109 7/5/32
f 2/1/108 7/5/32 3/4/31
f 7/5/32 4/2/109 1/3/110
s 5
f 29/41/111 30/42/112 50/43/113 49/44/114
f 30/42/112 31/45/115 51/46/116 50/43/113
f 31/45/115 32/47/117 52/48/118 51/46/116
f 32/47/117 33/49/119 53/50/120 52/48/118
f 33/49/119 34/51/121 54/52/122 53/50/120
f 34/51/121 35/53/123 55/54/124 54/52/122
f 35/53/123 36/55/125 56/56/126 55/54/124
f 36/55/125 37/57/127 57/58/128 56/56/126
f 37/57/127 38/59/129 58/60/130 57/58/128
f 38/59/129 39/61/131 59/62/132 58/60/130
f 39/61/131 40/63/133 60/64/134 59/62/132
f 40/63/133 41/65/135 61/66/136 60/64/134
f 41/65/135 42/67/137 62/68/138 61/66/136
f 42/67/137 43/69/139 63/70/140 62/68/138
f 43/69/139 44/71/141 64/72/142 63/70/140
f 44/71/141 45/73/143 65/74/144 64/72/142
f 45/73/143 46/75/145 66/76/146 65/74/144
f 46/75/145 47/77/147 67/78/148 66/76/146
f 47/77/147 48/79/149 68/80/150 67/78/148
f 48/79/149 29/81/111 49/82/114 68/80/150
s 6
f 30/83/151 29/84/152 69/85/153
f 31/86/154 30/83/151 69/85/153
f 32/87/155 31/86/154 69/85/153
f 33/88/156 32/87/155 69/85/153
f 34/89/157 33/88/156 69/85/153
f 35/90/158 34/89/157 69/85/153
f 36/91/159 35/90/158 69/85/153
f 37/92/160 36/91/159 69/85/153
f 38/93/161 37/92/160 69/85/153
f 39/94/162 38/93/161 69/85/153
f 40/95/163 39/94/162 69/85/153
f 41/96/164 40/95/163 69/85/153
f 42/97/165 41/96/164 69/85/153
f 43/98/166 42/97/165 69/85/153
f 44/99/167 43/98/166 69/85/153
f 45/100/168 44/99/167 69/85/153
f 46/101/169 45/100/168 69/85/153
f 47/102/170 46/101/169 69/85/153
f 48/103/171 47/102/170 69/85/153
f 29/84/152 48/103/171 69/85/153
s 7
f 49/104/172 50/105/173 70/106/174
f 50/105/173 51/107/175 70/106/174
f 51/107/175 52/108/176 70/106/174
f 52/108/176 53/109/177 70/106/174
f 53/109/177 54/110/178 70/106/174
f 54/110/178 55/111/179 70/106/174
f 55/111/179 56/112/180 70/106/174
f 56/112/180 57/113/181 70/106/174
f 57/113/181 58/114/182 70/106/174
f 58/114/182 59/115/183 70/106/174
f 59/115/183 60/116/184 70/106/174
f 60/116/184 61/117/185 70/106/174
f 61/117/185 62/118/186 70/106/174
f 62/118/186 63/119/187 70/106/174
f 63/119/187 64/120/188 70/106/174
f 64/120/188 65/121/189 70/106/174
f 65/121/189 66/122/190 70/106/174
f 66/122/190 67/123/191 70/106/174
f 67/123/191 68/124/192 70/106/174
f 68/124/192 49/104/172 70/106/174
s 8
f 71/125/193 72/126/194 92/127/195 91/128/196
f 72/126/194 73/129/197 93/130/198 92/127/195
f 73/129/197 74/131/199 94/132/200 93/130/198
f 74/131/199 75/133/201 95/134/202 94/132/200
f 75/133/201 76/135/203 96/136/204 95/134/202
f 76/135/203 77/137/205 97/138/206 96/136/204
f 77/137/205 78/139/207 98/140/208 97/138/206
f 78/139/207 79/141/209 99/142/210 98/140/208
f 79/141/209 80/143/211 100/144/212 99/142/210
f 80/143/211 81/145/213 101/146/214 100/144/212
f 81/145/213 82/147/215 102/148/216 101/146/214
f 82/147/215 83/149/217 103/150/218 102/148/216
f 83/149/217 84/151/219 104/152/220 103/150/218
f 84/151/219 85/153/221 105/154/222 104/152/220
f 85/153/221 86/155/223 106/156/224 105/154/222
f 86/155/223 87/157/225 107/158/226 106/156/224
f 87/157/225 88/159/227 108/160/228 107/158/226
f 88/159/227 89/161/229 109/162/230 108/160/228
f 89/161/229 90/163/231 110/164/232 109/162/230
f 90/163/231 71/165/193 91/166/196 110/164/232
s 9
f 72/167/233 71/168/234 111/169/235
f 73/170/236 72/167/233 111/169/235
f 74/171/237 73/170/236 111/169/235
f 75/172/238 74/171/237 111/169/235
f 76/173/239 75/172/238 111/169/235
f 77/174/240 76/173/239 111/169/235
f 78/175/241 77/174/240 111/169/235
f 79/176/242 78/175/241 111/169/235
f 80/177/243 79/176/242 111/169/235
f 81/178/244 80/177/243 111/169/235
f 82/179/245 81/178/244 111/169/235
f 83/180/246 82/179/245 111/169/235
f 84/181/247 83/180/246 111/169/235
f 85/182/248 84/181/247 111/169/235
f 86/183/249 85/182/248 111/169/235
f 87/184/250 86/183/249 111/169/235
f 88/185/251 87/184/250 111/169/235
f 89/186/252 88/185/251 111/169/235
f 90/187/253 89/186/252 111/169/235
f 71/168/234 90/187/253 111/169/235
s 10
f 91/188/254 92/189/255 112/190/256
f 92/189/255 93/191/257 112/190/256
f 93/191/257 94/192/258 112/190/256
f 94/192/258 95/193/259 112/190/256
f 95/193/259 96/194/260 112/190/256
f 96/194/260 97/195/261 112/190/256
f 97/195/261 98/196/262 112/190/256
f 98/196/262 99/197/263 112/190/256
f 99/197/263 100/198/264 112/190/256
f 100/198/264 101/199/265 112/190/256
f 101/199/265 102/200/266 112/190/256
f 102/200/266 103/201/267 112/190/256
f 103/201/267 104/202/268 112/190/256
f 104/202/268 105/203/269 112/190/256
f 105/203/269 106/204/270 112/190/256
f 106/204/270 107/205/271 112/190/256
f 107/205/271 108/206/272 112/190/256
f 108/206/272 109/207/273 112/190/256
f 109/207/273 110/208/274 112/190/256
f 110/208/274 91/188/254 112/190/256
