mtllib materials.mtl
v -0.06209314 0.2065715 0.04485738
v -0.0391438 0.2064771 0.03506291
v 0.1060481 0.2058796 -0.02690357
v 0.123704 0.205807 -0.03443891
v 0.1378084 0.1960644 -0.008498788
v -0.04777777 0.1966634 0.07277906
v 0.08224201 -0.06650603 -0.1319338
v 0.09327877 -0.07572505 -0.10952
v 0.06130517 -0.06603271 -0.1232839
v -0.08663213 -0.06268829 -0.06216598
v -0.1108232 -0.06214142 -0.05217171
v -0.09957206 -0.07148194 -0.02767861
v -0.08207762 -0.04113334 -0.05319822
v -0.04410768 0.1830454 0.02918792
v 0.09999478 0.1819717 -0.03433549
v 0.06499577 -0.04063278 -0.1154792
v 0.1048464 0.1708146 -0.02189809
v 0.07115531 -0.04812139 -0.09512293
v -0.07480538 -0.04793125 -0.03525901
v -0.03681743 0.1745743 0.04104519
v -0.0564431 -0.01727194 0.1014359
v -0.02494061 -0.07916701 0.1157794
v -0.02947068 -0.07959172 0.1052821
v -0.05936968 -0.01951861 0.09620631
v 0.03347456 -0.07850617 0.08154023
v 0.02948225 -0.07886747 0.07197857
v 0.08245862 0.1257814 -0.02492845
v 0.07858407 0.1150751 -0.02824259
v 0.02397692 0.1408928 0.004016638
v -0.04764521 0.1854711 0.03429461
v 0.105232 0.1856536 -0.03310204
v 0.1094922 0.1769071 -0.01323903
v -0.04323137 0.1750993 0.05158722
v 0.06891572 -0.04344934 -0.1157161
v 0.07571578 -0.0504927 -0.0993005
v -0.08211029 -0.04431981 -0.04933113
v -0.07700777 -0.05230039 -0.03447419
vn 0.1250535 0.9514812 0.2811498
vn 0.8908945 0.02467441 -0.4535396
vn -0.1476479 -0.9416661 -0.3024319
vn -0.8978667 0.006182193 0.440224
vn -0.2997727 0.3713574 -0.8787663
vn 0.3617031 -0.3818906 0.8504883
vn -0.3355384 0.3629565 -0.8692966
vn -0.3556011 0.3691545 -0.858646
vn -0.3739666 0.3306057 -0.8665155
vn -0.9422883 0.03001034 0.3334549
vn 0.8989871 0.002721917 -0.4379667
vn -0.2485045 -0.8104071 -0.5305526
vn -0.3635645 0.3512879 -0.8627965
vn 0.1270762 0.9431022 0.3072617
vn -0.8295337 -0.3312795 0.4495862
vn 0.02758078 -0.999243 0.02743554
vn 0.9023976 -0.3515759 -0.2491447
vn -0.3273598 0.3855149 -0.8626783
vn -0.8089995 0.545782 0.2182705
vn 0.4415238 0.3270646 0.8355151
vn -0.4840396 -0.2778187 -0.8297725
vn 0.1749909 0.8914959 0.4178674
vn 0.9518334 -0.03353324 -0.3047768
vn -0.1556725 -0.9122108 -0.3789955
vn -0.9534593 0.03099832 0.2999242
vn -0.375956 0.3663288 -0.8511524
vn 0.3657533 -0.3764617 0.8511763
vt -0.1295106 0.07696323
vt -0.1297318 0.07944863
vt -0.1311313 0.09517281
vt -0.1313014 0.09708492
vt -0.1344106 0.09709204
vt -0.1328003 0.07689567
vt 0.133795 0.1165883
vt 0.1311168 0.08749172
vt 0.1337718 0.08729272
vt 0.1369012 0.1164609
vt 0.1280837 0.09456292
vt 0.1278122 0.09231341
vt 0.1258943 0.07641871
vt 0.1255807 0.07381957
vt 0.1284248 0.07360137
vt 0.1307431 0.09442683
vt -0.1315014 0.08394237
vt -0.1358952 0.1125894
vt -0.139176 0.1123461
vt -0.1343385 0.08365192
vt -0.05081678 0.1290276
vt -0.04967812 0.1313812
vt -0.05179877 0.1324514
vt -0.07361308 0.142891
vt -0.07574346 0.1441164
vt -0.07680161 0.141863
vt 0.08189057 0.1354435
vt 0.07332098 0.1538016
vt 0.04671597 0.1414436
vt 0.05579884 0.1225612
vt -0.04357584 0.1416633
vt -0.04259193 0.1437041
vt -0.06910874 0.1559779
vt -0.06992169 0.1542399
vt -0.06770836 0.1529225
vt -0.04599501 0.1428166
vt -0.05249871 0.1251404
vt -0.04557367 0.1395746
vt -0.0479931 0.1407256
vt -0.05462557 0.1261967
vt -0.06557734 0.1475333
vt -0.06778783 0.1488531
vt -0.0744952 0.1345628
vt -0.07236498 0.1333227
vt -0.1372359 0.05578951
vt -0.1461817 0.0780063
vt -0.1475096 0.07688465
vt -0.139356 0.05502575
vt 0.1358919 0.109293
vt 0.132195 0.08539388
vt 0.1342305 0.08517457
vt 0.1374343 0.1087851
vt 0.1007882 0.08308089
vt 0.0973547 0.06771161
vt 0.09897125 0.06754886
vt 0.1024705 0.08265468
vt -0.07415783 0.1352309
vt -0.05275159 0.1247671
vt -0.04617736 0.1391072
vt -0.06725211 0.1491139
vt -0.1285261 0.0785456
vt -0.1264884 0.07878419
vt -0.1280981 0.09467464
vt -0.1303067 0.0942208
vt -0.07835373 0.1496887
vt -0.0852205 0.1479189
vt -0.08458789 0.1469692
vt -0.07815628 0.1490855
vt 0.1559792 0.102081
vt 0.1546135 0.1087132
vt 0.1535792 0.1086418
vt 0.1548388 0.1019887
vt 0.1540016 0.07323658
vt 0.147097 0.09575321
vt 0.1465742 0.09469448
vt 0.1529707 0.07325242
vt -0.06649397 0.1504768
vt -0.07061812 0.1451991
vt -0.06553169 0.1497838
vt -0.1481414 0.1123259
vt -0.1538348 0.09290109
vt -0.1532331 0.09268291
vt -0.01807824 0.0844307
vt -0.02189087 0.08992774
vt -0.03848791 0.07321787
vt -0.03611081 0.06688283
vt -0.02906361 0.06743894
vt 0.01918923 0.06389724
vt 0.02592443 0.06344359
vt 0.02844273 0.06972824
vt 0.01311458 0.08602037
vt 0.008430516 0.08108203
vt -0.1153594 0.07346661
vt -0.1178102 0.08999284
vt -0.119896 0.08926755
vt -0.1173331 0.07287493
vt 0.1473557 0.07026811
vt 0.1368959 0.0479772
vt 0.138617 0.04716357
vt 0.1493152 0.06925655
vt 0.1234122 0.09152706
vt 0.1213562 0.07515845
vt 0.1230803 0.07480545
vt 0.1253011 0.09124815
vt -0.1385062 0.04557925
vt -0.1492397 0.06781971
vt -0.1509375 0.06664751
vt -0.1400114 0.04466575
vt -0.0553466 0.1235499
vt -0.04846085 0.1385417
vt -0.07078625 0.1489291
vt -0.0778247 0.1337766
vt 0.07843734 0.1348552
vt 0.07167143 0.1500053
vt 0.0492552 0.1400007
vt 0.05602111 0.1248506
o group204053884
g mesh204053884
usemtl mat20
f 6/6/1 5/5/1 4/4/1 3/3/1 2/2/1 1/1/1
f 5/10/2 8/9/2 7/8/2 4/7/2
f 8/16/3 12/15/3 11/14/3 10/13/3 9/12/3 7/11/3
f 12/20/4 6/19/4 1/18/4 11/17/4
f 1/26/5 2/25/5 14/24/5 13/23/5 10/22/5 11/21/5
f 12/30/6 8/29/6 5/28/6 6/27/6
f 16/36/7 15/35/7 3/34/7 4/33/7 7/32/7 9/31/7
f 13/40/8 16/39/8 9/38/8 10/37/8
f 14/44/9 2/43/9 3/42/9 15/41/9
f 18/48/10 17/47/10 15/46/10 16/45/10
f 20/52/11 19/51/11 13/50/11 14/49/11
f 17/56/12 20/55/12 14/54/12 15/53/12
f 18/64/14 16/63/14 13/62/14 19/61/14
f 24/68/15 23/67/15 22/66/15 21/65/15
f 23/72/16 26/71/16 25/70/16 22/69/16
f 26/76/17 28/75/17 27/74/17 25/73/17
f 28/79/18 29/78/18 27/77/18
f 24/82/19 21/81/19 29/80/19
f 21/87/20 22/86/20 25/85/20 27/84/20 29/83/20
f 29/92/21 28/91/21 26/90/21 23/89/21 24/88/21
usemtl mat23
f 17/60/13 18/59/13 19/58/13 20/57/13
usemtl mat24
f 33/96/22 32/95/22 31/94/22 30/93/22
f 32/100/23 35/99/23 34/98/23 31/97/23
f 35/104/24 37/103/24 36/102/24 34/101/24
f 37/108/25 33/107/25 30/106/25 36/105/25
f 30/112/26 31/111/26 34/110/26 36/109/26
f 37/116/27 35/115/27 32/114/27 33/113/27
